<svg width="512" height="512" xmlns="http://www.w3.org/2000/svg" xml:space="preserve" version="1.1">

 <g>
  <title>Layer 1</title>
  <g id="svg_1">
   <g id="svg_2">
    <path fill="#999999" id="svg_3" d="m496.128,220.361l-160,-144.032c-19.712,-17.728 -50.08,-16.192 -67.808,3.584c-17.728,19.68 -16.128,50.048 3.584,67.776l66.976,60.32l-290.88,0c-26.528,0 -48,21.472 -48,48s21.472,48 48,48l290.944,0l-67.072,60.32c-19.712,17.76 -21.312,48.096 -3.584,67.776c9.504,10.528 22.592,15.904 35.712,15.904c11.456,0 22.944,-4.064 32.096,-12.32l160,-143.968c10.112,-9.088 15.904,-22.08 15.904,-35.68c0,-13.6 -5.792,-26.592 -15.872,-35.68z"/>
   </g>
  </g>
  <g id="svg_4"/>
  <g id="svg_5"/>
  <g id="svg_6"/>
  <g id="svg_7"/>
  <g id="svg_8"/>
  <g id="svg_9"/>
  <g id="svg_10"/>
  <g id="svg_11"/>
  <g id="svg_12"/>
  <g id="svg_13"/>
  <g id="svg_14"/>
  <g id="svg_15"/>
  <g id="svg_16"/>
  <g id="svg_17"/>
  <g id="svg_18"/>
 </g>
</svg>